<?xml version="1.0" encoding="UTF-8"?>
<svg xmlns="http://www.w3.org/2000/svg" viewBox="0 0 1400 2150" font-family="Segoe UI, system-ui, -apple-system, Helvetica, Arial, sans-serif" role="img" aria-label="AppNova React Frontend Architecture Infographic">
  <title>AppNova React Frontend - Architecture Infographic</title>
  <desc>Layered architecture diagram: Entry point, App shell, Global context state, Views, Components, Services, Transport (Axios/SSE), and FastAPI backend with 13 AI agents.</desc>

  <!-- Gradients & filters -->
  <defs>
    <linearGradient id="bgGrad" x1="0" y1="0" x2="0" y2="1">
      <stop offset="0%" stop-color="#0b1020"/>
      <stop offset="100%" stop-color="#0a0f1f"/>
    </linearGradient>
    <linearGradient id="titleGrad" x1="0" y1="0" x2="1" y2="0">
      <stop offset="0%" stop-color="#22d3ee"/>
      <stop offset="50%" stop-color="#8b5cf6"/>
      <stop offset="100%" stop-color="#f472b6"/>
    </linearGradient>
    <linearGradient id="entryGrad" x1="0" y1="0" x2="1" y2="1">
      <stop offset="0%" stop-color="#0ea5e9"/>
      <stop offset="100%" stop-color="#0284c7"/>
    </linearGradient>
    <linearGradient id="appGrad" x1="0" y1="0" x2="1" y2="1">
      <stop offset="0%" stop-color="#22d3ee"/>
      <stop offset="100%" stop-color="#06b6d4"/>
    </linearGradient>
    <linearGradient id="ctxGrad" x1="0" y1="0" x2="1" y2="1">
      <stop offset="0%" stop-color="#a78bfa"/>
      <stop offset="100%" stop-color="#7c3aed"/>
    </linearGradient>
    <linearGradient id="viewGrad" x1="0" y1="0" x2="1" y2="1">
      <stop offset="0%" stop-color="#f472b6"/>
      <stop offset="100%" stop-color="#db2777"/>
    </linearGradient>
    <linearGradient id="compGrad" x1="0" y1="0" x2="1" y2="1">
      <stop offset="0%" stop-color="#34d399"/>
      <stop offset="100%" stop-color="#059669"/>
    </linearGradient>
    <linearGradient id="svcGrad" x1="0" y1="0" x2="1" y2="1">
      <stop offset="0%" stop-color="#fbbf24"/>
      <stop offset="100%" stop-color="#d97706"/>
    </linearGradient>
    <linearGradient id="transportGrad" x1="0" y1="0" x2="1" y2="1">
      <stop offset="0%" stop-color="#fb923c"/>
      <stop offset="100%" stop-color="#ea580c"/>
    </linearGradient>
    <linearGradient id="beGrad" x1="0" y1="0" x2="1" y2="1">
      <stop offset="0%" stop-color="#f87171"/>
      <stop offset="100%" stop-color="#b91c1c"/>
    </linearGradient>
    <filter id="softShadow" x="-10%" y="-10%" width="120%" height="130%">
      <feDropShadow dx="0" dy="3" stdDeviation="4" flood-color="#000" flood-opacity="0.35"/>
    </filter>
    <marker id="arrow" viewBox="0 0 10 10" refX="8" refY="5" markerWidth="8" markerHeight="8" orient="auto-start-reverse">
      <path d="M0,0 L10,5 L0,10 z" fill="#94a3b8"/>
    </marker>
  </defs>

  <!-- Background -->
  <rect width="1400" height="2150" fill="url(#bgGrad)"/>

  <!-- decorative top glow -->
  <circle cx="200" cy="120" r="260" fill="#22d3ee" opacity="0.08"/>
  <circle cx="1200" cy="80"  r="240" fill="#a78bfa" opacity="0.08"/>

  <!-- ==================== HEADER ==================== -->
  <text x="700" y="80" text-anchor="middle" font-size="44" font-weight="800" fill="url(#titleGrad)">AppNova — React Frontend Architecture</text>
  <text x="700" y="115" text-anchor="middle" font-size="18" fill="#cbd5e1" font-weight="500">IDE-style single-page app for legacy code analysis &amp; modernization · React 18 + TypeScript + Vite + Tailwind</text>

  <!-- Stats strip -->
  <g transform="translate(120,150)" filter="url(#softShadow)">
    <rect width="1160" height="72" rx="14" fill="#111827" stroke="#1f2937"/>
    <!-- 5 stat pills -->
    <g font-family="Segoe UI, sans-serif">
      <g transform="translate(30,16)">
        <text x="0" y="18" fill="#22d3ee" font-size="26" font-weight="800">16</text>
        <text x="0" y="44" fill="#94a3b8" font-size="13">Components</text>
      </g>
      <g transform="translate(250,16)">
        <text x="0" y="18" fill="#a78bfa" font-size="26" font-weight="800">7</text>
        <text x="0" y="44" fill="#94a3b8" font-size="13">API Services</text>
      </g>
      <g transform="translate(470,16)">
        <text x="0" y="18" fill="#f472b6" font-size="26" font-weight="800">6</text>
        <text x="0" y="44" fill="#94a3b8" font-size="13">Main Views</text>
      </g>
      <g transform="translate(690,16)">
        <text x="0" y="18" fill="#34d399" font-size="26" font-weight="800">13</text>
        <text x="0" y="44" fill="#94a3b8" font-size="13">AI Agents (Backend)</text>
      </g>
      <g transform="translate(940,16)">
        <text x="0" y="18" fill="#fbbf24" font-size="26" font-weight="800">SSE</text>
        <text x="0" y="44" fill="#94a3b8" font-size="13">Live Streaming</text>
      </g>
    </g>
  </g>

  <!-- ==================== LAYER 1: ENTRY ==================== -->
  <g transform="translate(120,260)" filter="url(#softShadow)">
    <rect width="1160" height="110" rx="16" fill="#0f172a" stroke="#1e293b"/>
    <rect width="220" height="110" rx="16" fill="url(#entryGrad)"/>
    <text x="110" y="55" text-anchor="middle" fill="#fff" font-size="22" font-weight="800">① Entry</text>
    <text x="110" y="80" text-anchor="middle" fill="#e0f2fe" font-size="13">main.tsx</text>

    <g transform="translate(250,20)" font-size="13" fill="#e2e8f0">
      <text font-weight="700" font-size="15" fill="#7dd3fc">React 18 StrictMode</text>
      <text y="22">• Mounts &lt;App/&gt; inside &lt;ErrorBoundary/&gt;</text>
      <text y="42">• Opens EventSource on /api/logs/stream (live backend logs → DevTools)</text>
      <text y="62">• Auto-reconnects every 3 s if backend restarts</text>
    </g>

    <g transform="translate(820,20)" font-size="13" fill="#e2e8f0">
      <text font-weight="700" font-size="15" fill="#7dd3fc">Bootstrapping</text>
      <text y="22">Vite 8 dev server · HMR</text>
      <text y="42">Tailwind CSS 4 via PostCSS</text>
      <text y="62">TypeScript 5.9 strict mode</text>
    </g>
  </g>
  <!-- Arrow down -->
  <line x1="700" y1="376" x2="700" y2="405" stroke="#94a3b8" stroke-width="2" marker-end="url(#arrow)"/>

  <!-- ==================== LAYER 2: APP SHELL ==================== -->
  <g transform="translate(120,410)" filter="url(#softShadow)">
    <rect width="1160" height="120" rx="16" fill="#0f172a" stroke="#1e293b"/>
    <rect width="220" height="120" rx="16" fill="url(#appGrad)"/>
    <text x="110" y="55" text-anchor="middle" fill="#0b1020" font-size="22" font-weight="800">② App Shell</text>
    <text x="110" y="82" text-anchor="middle" fill="#0b1020" font-size="13">App.tsx</text>

    <g transform="translate(250,22)" font-size="13" fill="#e2e8f0">
      <text font-weight="700" font-size="15" fill="#67e8f9">IDE Layout + Router</text>
      <text y="22">• &lt;AppProvider&gt; wraps entire tree (global store)</text>
      <text y="42">• &lt;AppContent&gt; = Activity bar · Sidebar · Tab strip · Editor · Chat dock</text>
      <text y="62">• Tab-based routing: dashboard · analysis · &lt;agent-id&gt; · convert · diff</text>
      <text y="82">• Session recovery via /api/active-session + spectator SSE on mount</text>
    </g>
  </g>
  <line x1="700" y1="536" x2="700" y2="565" stroke="#94a3b8" stroke-width="2" marker-end="url(#arrow)"/>

  <!-- ==================== LAYER 3: GLOBAL CONTEXT ==================== -->
  <g transform="translate(120,570)" filter="url(#softShadow)">
    <rect width="1160" height="180" rx="16" fill="#0f172a" stroke="#1e293b"/>
    <rect width="220" height="180" rx="16" fill="url(#ctxGrad)"/>
    <text x="110" y="80" text-anchor="middle" fill="#fff" font-size="22" font-weight="800">③ Global State</text>
    <text x="110" y="107" text-anchor="middle" fill="#ede9fe" font-size="13">AppContext.tsx</text>
    <text x="110" y="130" text-anchor="middle" fill="#ede9fe" font-size="12" opacity="0.85">localStorage persisted</text>

    <!-- 5 slices of state -->
    <g transform="translate(250,20)">
      <g>
        <rect width="160" height="70" rx="10" fill="#1e1b4b" stroke="#4c1d95"/>
        <text x="80" y="24" text-anchor="middle" fill="#c4b5fd" font-size="13" font-weight="700">Session &amp; Files</text>
        <text x="80" y="42" text-anchor="middle" fill="#cbd5e1" font-size="11">sessionId · files</text>
        <text x="80" y="58" text-anchor="middle" fill="#cbd5e1" font-size="11">stackConfig</text>
      </g>
      <g transform="translate(180,0)">
        <rect width="160" height="70" rx="10" fill="#1e1b4b" stroke="#4c1d95"/>
        <text x="80" y="24" text-anchor="middle" fill="#c4b5fd" font-size="13" font-weight="700">Analysis</text>
        <text x="80" y="42" text-anchor="middle" fill="#cbd5e1" font-size="11">progress · results</text>
        <text x="80" y="58" text-anchor="middle" fill="#cbd5e1" font-size="11">thoughts · indexing</text>
      </g>
      <g transform="translate(360,0)">
        <rect width="160" height="70" rx="10" fill="#1e1b4b" stroke="#4c1d95"/>
        <text x="80" y="24" text-anchor="middle" fill="#c4b5fd" font-size="13" font-weight="700">Code Gen</text>
        <text x="80" y="42" text-anchor="middle" fill="#cbd5e1" font-size="11">codeGenFiles</text>
        <text x="80" y="58" text-anchor="middle" fill="#cbd5e1" font-size="11">preview · artifact</text>
      </g>
      <g transform="translate(540,0)">
        <rect width="160" height="70" rx="10" fill="#1e1b4b" stroke="#4c1d95"/>
        <text x="80" y="24" text-anchor="middle" fill="#c4b5fd" font-size="13" font-weight="700">Chat</text>
        <text x="80" y="42" text-anchor="middle" fill="#cbd5e1" font-size="11">messages · modes</text>
        <text x="80" y="58" text-anchor="middle" fill="#cbd5e1" font-size="11">reportChat thread</text>
      </g>
      <g transform="translate(720,0)">
        <rect width="160" height="70" rx="10" fill="#1e1b4b" stroke="#4c1d95"/>
        <text x="80" y="24" text-anchor="middle" fill="#c4b5fd" font-size="13" font-weight="700">Conversion</text>
        <text x="80" y="42" text-anchor="middle" fill="#cbd5e1" font-size="11">rows · running</text>
        <text x="80" y="58" text-anchor="middle" fill="#cbd5e1" font-size="11">detached stream</text>
      </g>

      <!-- Second row: actions -->
      <g transform="translate(0,90)">
        <rect width="900" height="70" rx="10" fill="#1e1b4b" stroke="#4c1d95"/>
        <text x="20" y="24" fill="#c4b5fd" font-size="13" font-weight="700">Actions</text>
        <text x="20" y="46" fill="#e2e8f0" font-size="12">runAnalysis() · runSingleAgent() · resumeAnalysis() · cancelAnalysis() · startConversion() · appendReportChatMessage()</text>
        <text x="20" y="62" fill="#94a3b8" font-size="11">All streaming actions are async generators yielding typed SSE event objects</text>
      </g>
    </g>
  </g>
  <line x1="700" y1="756" x2="700" y2="785" stroke="#94a3b8" stroke-width="2" marker-end="url(#arrow)"/>

  <!-- ==================== LAYER 4: VIEWS ==================== -->
  <g transform="translate(120,790)" filter="url(#softShadow)">
    <rect width="1160" height="160" rx="16" fill="#0f172a" stroke="#1e293b"/>
    <rect width="220" height="160" rx="16" fill="url(#viewGrad)"/>
    <text x="110" y="70" text-anchor="middle" fill="#fff" font-size="22" font-weight="800">④ Views</text>
    <text x="110" y="98" text-anchor="middle" fill="#fce7f3" font-size="13">Tab-routed content</text>

    <g transform="translate(250,20)">
      <!-- 6 view cards -->
      <g>
        <rect width="140" height="56" rx="10" fill="#2a0f1e" stroke="#9d174d"/>
        <text x="70" y="24" text-anchor="middle" fill="#fbcfe8" font-size="13" font-weight="700">WelcomeView</text>
        <text x="70" y="42" text-anchor="middle" fill="#cbd5e1" font-size="11">Dashboard</text>
      </g>
      <g transform="translate(150,0)">
        <rect width="140" height="56" rx="10" fill="#2a0f1e" stroke="#9d174d"/>
        <text x="70" y="24" text-anchor="middle" fill="#fbcfe8" font-size="13" font-weight="700">Analysis</text>
        <text x="70" y="42" text-anchor="middle" fill="#cbd5e1" font-size="11">Agent progress</text>
      </g>
      <g transform="translate(300,0)">
        <rect width="140" height="56" rx="10" fill="#2a0f1e" stroke="#9d174d"/>
        <text x="70" y="24" text-anchor="middle" fill="#fbcfe8" font-size="13" font-weight="700">ReportView</text>
        <text x="70" y="42" text-anchor="middle" fill="#cbd5e1" font-size="11">Markdown + Mermaid</text>
      </g>
      <g transform="translate(450,0)">
        <rect width="140" height="56" rx="10" fill="#2a0f1e" stroke="#9d174d"/>
        <text x="70" y="24" text-anchor="middle" fill="#fbcfe8" font-size="13" font-weight="700">ChatView</text>
        <text x="70" y="42" text-anchor="middle" fill="#cbd5e1" font-size="11">Copilot-style chat</text>
      </g>
      <g transform="translate(600,0)">
        <rect width="140" height="56" rx="10" fill="#2a0f1e" stroke="#9d174d"/>
        <text x="70" y="24" text-anchor="middle" fill="#fbcfe8" font-size="13" font-weight="700">ConversionPanel</text>
        <text x="70" y="42" text-anchor="middle" fill="#cbd5e1" font-size="11">Per-file batch</text>
      </g>
      <g transform="translate(750,0)">
        <rect width="140" height="56" rx="10" fill="#2a0f1e" stroke="#9d174d"/>
        <text x="70" y="24" text-anchor="middle" fill="#fbcfe8" font-size="13" font-weight="700">DiffView</text>
        <text x="70" y="42" text-anchor="middle" fill="#cbd5e1" font-size="11">Monaco diff editor</text>
      </g>

      <!-- Second row: notes -->
      <g transform="translate(0,80)">
        <rect width="890" height="56" rx="10" fill="#1f172a" stroke="#701a3d"/>
        <text x="15" y="22" fill="#fbcfe8" font-size="12" font-weight="700">Per-agent report tabs (13):</text>
        <text x="15" y="42" fill="#e2e8f0" font-size="11">architecture · code-analysis · code-generation · business-rules · security · devops · documentation · testing · data-migration · ui-ux · integration · migration-planner · code-review</text>
      </g>
    </g>
  </g>
  <line x1="700" y1="956" x2="700" y2="985" stroke="#94a3b8" stroke-width="2" marker-end="url(#arrow)"/>

  <!-- ==================== LAYER 5: COMPONENTS ==================== -->
  <g transform="translate(120,990)" filter="url(#softShadow)">
    <rect width="1160" height="230" rx="16" fill="#0f172a" stroke="#1e293b"/>
    <rect width="220" height="230" rx="16" fill="url(#compGrad)"/>
    <text x="110" y="100" text-anchor="middle" fill="#04231a" font-size="22" font-weight="800">⑤ Components</text>
    <text x="110" y="128" text-anchor="middle" fill="#04231a" font-size="13">16 reusable units</text>

    <!-- 4x4 grid of components -->
    <g transform="translate(250,20)" font-size="11" fill="#d1fae5">
      <!-- Row 1 -->
      <g><rect width="200" height="42" rx="8" fill="#052e22" stroke="#065f46"/><text x="100" y="18" text-anchor="middle" fill="#6ee7b7" font-weight="700" font-size="12">Titlebar</text><text x="100" y="34" text-anchor="middle">Logo · theme · chat toggle</text></g>
      <g transform="translate(210,0)"><rect width="200" height="42" rx="8" fill="#052e22" stroke="#065f46"/><text x="100" y="18" text-anchor="middle" fill="#6ee7b7" font-weight="700" font-size="12">Sidebar</text><text x="100" y="34" text-anchor="middle">Upload · stack · agents</text></g>
      <g transform="translate(420,0)"><rect width="200" height="42" rx="8" fill="#052e22" stroke="#065f46"/><text x="100" y="18" text-anchor="middle" fill="#6ee7b7" font-weight="700" font-size="12">CodePreviewTabs</text><text x="100" y="34" text-anchor="middle">Code / Preview / Output / Diff</text></g>
      <g transform="translate(630,0)"><rect width="200" height="42" rx="8" fill="#052e22" stroke="#065f46"/><text x="100" y="18" text-anchor="middle" fill="#6ee7b7" font-weight="700" font-size="12">ArtifactPanel</text><text x="100" y="34" text-anchor="middle">Sandboxed iframe preview</text></g>

      <!-- Row 2 -->
      <g transform="translate(0,50)"><rect width="200" height="42" rx="8" fill="#052e22" stroke="#065f46"/><text x="100" y="18" text-anchor="middle" fill="#6ee7b7" font-weight="700" font-size="12">ThinkingBlock</text><text x="100" y="34" text-anchor="middle">Agent reasoning stages</text></g>
      <g transform="translate(210,50)"><rect width="200" height="42" rx="8" fill="#052e22" stroke="#065f46"/><text x="100" y="18" text-anchor="middle" fill="#6ee7b7" font-weight="700" font-size="12">MultiStepProgress</text><text x="100" y="34" text-anchor="middle">Step tracker with icons</text></g>
      <g transform="translate(420,50)"><rect width="200" height="42" rx="8" fill="#052e22" stroke="#065f46"/><text x="100" y="18" text-anchor="middle" fill="#6ee7b7" font-weight="700" font-size="12">ExecutionReport</text><text x="100" y="34" text-anchor="middle">Run output · errors · fixes</text></g>
      <g transform="translate(630,50)"><rect width="200" height="42" rx="8" fill="#052e22" stroke="#065f46"/><text x="100" y="18" text-anchor="middle" fill="#6ee7b7" font-weight="700" font-size="12">ReportChatPanel</text><text x="100" y="34" text-anchor="middle">Per-agent docked chat</text></g>

      <!-- Row 3 -->
      <g transform="translate(0,100)"><rect width="200" height="42" rx="8" fill="#052e22" stroke="#065f46"/><text x="100" y="18" text-anchor="middle" fill="#6ee7b7" font-weight="700" font-size="12">AgentCompareView</text><text x="100" y="34" text-anchor="middle">Side-by-side reports</text></g>
      <g transform="translate(210,100)"><rect width="200" height="42" rx="8" fill="#052e22" stroke="#065f46"/><text x="100" y="18" text-anchor="middle" fill="#6ee7b7" font-weight="700" font-size="12">SettingsPanel</text><text x="100" y="34" text-anchor="middle">Hooks · skills · slash cmds</text></g>
      <g transform="translate(420,100)"><rect width="200" height="42" rx="8" fill="#052e22" stroke="#065f46"/><text x="100" y="18" text-anchor="middle" fill="#6ee7b7" font-weight="700" font-size="12">ErrorBoundary</text><text x="100" y="34" text-anchor="middle">Render-crash fallback</text></g>
      <g transform="translate(630,100)"><rect width="200" height="42" rx="8" fill="#052e22" stroke="#065f46"/><text x="100" y="18" text-anchor="middle" fill="#6ee7b7" font-weight="700" font-size="12">ConversionPanel *</text><text x="100" y="34" text-anchor="middle">(also a view)</text></g>

      <!-- Row 4: libs used -->
      <g transform="translate(0,160)">
        <rect width="830" height="44" rx="10" fill="#052e22" stroke="#065f46"/>
        <text x="15" y="19" fill="#6ee7b7" font-weight="700" font-size="12">Third-party rendering libs:</text>
        <text x="15" y="35" fill="#d1fae5" font-size="11">Monaco Editor · Mermaid · react-markdown · remark-gfm · react-syntax-highlighter (Prism)</text>
      </g>
    </g>
  </g>
  <line x1="700" y1="1226" x2="700" y2="1255" stroke="#94a3b8" stroke-width="2" marker-end="url(#arrow)"/>

  <!-- ==================== LAYER 6: SERVICES ==================== -->
  <g transform="translate(120,1260)" filter="url(#softShadow)">
    <rect width="1160" height="220" rx="16" fill="#0f172a" stroke="#1e293b"/>
    <rect width="220" height="220" rx="16" fill="url(#svcGrad)"/>
    <text x="110" y="90" text-anchor="middle" fill="#2a1a05" font-size="22" font-weight="800">⑥ Services</text>
    <text x="110" y="118" text-anchor="middle" fill="#2a1a05" font-size="13">src/services/</text>
    <text x="110" y="140" text-anchor="middle" fill="#2a1a05" font-size="12">api.ts · chatContext.ts</text>

    <g transform="translate(250,20)" font-size="11" fill="#fef3c7">
      <!-- service cards -->
      <g><rect width="200" height="60" rx="10" fill="#2b1a05" stroke="#92400e"/><text x="100" y="22" text-anchor="middle" fill="#fbbf24" font-weight="700" font-size="13">AnalysisService</text><text x="100" y="40" text-anchor="middle">streamAnalysis (SSE)</text><text x="100" y="54" text-anchor="middle">upload · index · session</text></g>
      <g transform="translate(210,0)"><rect width="200" height="60" rx="10" fill="#2b1a05" stroke="#92400e"/><text x="100" y="22" text-anchor="middle" fill="#fbbf24" font-weight="700" font-size="13">ChatService</text><text x="100" y="40" text-anchor="middle">streamAgentChat (SSE)</text><text x="100" y="54" text-anchor="middle">history save/load</text></g>
      <g transform="translate(420,0)"><rect width="200" height="60" rx="10" fill="#2b1a05" stroke="#92400e"/><text x="100" y="22" text-anchor="middle" fill="#fbbf24" font-weight="700" font-size="13">DiffService</text><text x="100" y="40" text-anchor="middle">generateDiff</text><text x="100" y="54" text-anchor="middle">side-by-side transforms</text></g>
      <g transform="translate(630,0)"><rect width="200" height="60" rx="10" fill="#2b1a05" stroke="#92400e"/><text x="100" y="22" text-anchor="middle" fill="#fbbf24" font-weight="700" font-size="13">ExportService</text><text x="100" y="40" text-anchor="middle">export · download</text><text x="100" y="54" text-anchor="middle">md / docx / pdf</text></g>

      <g transform="translate(0,75)"><rect width="200" height="60" rx="10" fill="#2b1a05" stroke="#92400e"/><text x="100" y="22" text-anchor="middle" fill="#fbbf24" font-weight="700" font-size="13">ConversionService</text><text x="100" y="40" text-anchor="middle">stream (SSE)</text><text x="100" y="54" text-anchor="middle">manifest · status · cancel</text></g>
      <g transform="translate(210,75)"><rect width="200" height="60" rx="10" fill="#2b1a05" stroke="#92400e"/><text x="100" y="22" text-anchor="middle" fill="#fbbf24" font-weight="700" font-size="13">ArtifactService</text><text x="100" y="40" text-anchor="middle">iframe url · html</text><text x="100" y="54" text-anchor="middle">meta (sha256 · size)</text></g>
      <g transform="translate(420,75)"><rect width="200" height="60" rx="10" fill="#2b1a05" stroke="#92400e"/><text x="100" y="22" text-anchor="middle" fill="#fbbf24" font-weight="700" font-size="13">GeneratedFilesSvc</text><text x="100" y="40" text-anchor="middle">list · read</text><text x="100" y="54" text-anchor="middle">generated output tree</text></g>
      <g transform="translate(630,75)"><rect width="200" height="60" rx="10" fill="#2b1a05" stroke="#92400e"/><text x="100" y="22" text-anchor="middle" fill="#fbbf24" font-weight="700" font-size="13">chatContext.ts</text><text x="100" y="40" text-anchor="middle">intent classifier</text><text x="100" y="54" text-anchor="middle">refine · ask · run modes</text></g>

      <!-- Transport -->
      <g transform="translate(0,150)">
        <rect width="830" height="50" rx="10" fill="#3a2308" stroke="#b45309"/>
        <text x="15" y="20" fill="#fde68a" font-weight="700" font-size="12">⚡ Transport layer</text>
        <text x="15" y="38" fill="#fef3c7" font-size="11">Axios (request/response)   ·   Fetch + ReadableStream + EventSource (Server-Sent Events for live streaming)</text>
      </g>
    </g>
  </g>
  <line x1="700" y1="1486" x2="700" y2="1515" stroke="#94a3b8" stroke-width="2" marker-end="url(#arrow)"/>

  <!-- ==================== LAYER 7: BACKEND ==================== -->
  <g transform="translate(120,1520)" filter="url(#softShadow)">
    <rect width="1160" height="440" rx="16" fill="#0f172a" stroke="#1e293b"/>
    <rect width="220" height="440" rx="16" fill="url(#beGrad)"/>
    <text x="110" y="190" text-anchor="middle" fill="#fff" font-size="22" font-weight="800">⑦ Backend</text>
    <text x="110" y="218" text-anchor="middle" fill="#fee2e2" font-size="13">FastAPI · Python</text>
    <text x="110" y="240" text-anchor="middle" fill="#fee2e2" font-size="12">localhost:8000</text>
    <text x="110" y="262" text-anchor="middle" fill="#fecaca" font-size="11" opacity="0.85">VITE_API_BASE override</text>

    <!-- Endpoints grid -->
    <g transform="translate(250,20)">
      <text x="0" y="14" fill="#fda4af" font-weight="700" font-size="13">REST + SSE Endpoints</text>
      <g font-family="Consolas, Menlo, monospace" font-size="11" fill="#fecaca">
        <g transform="translate(0,28)">
          <rect width="430" height="22" rx="6" fill="#1a0606" stroke="#7f1d1d"/>
          <text x="10" y="15">POST /api/upload  ·  /api/upload/github</text>
        </g>
        <g transform="translate(0,56)">
          <rect width="430" height="22" rx="6" fill="#1a0606" stroke="#7f1d1d"/>
          <text x="10" y="15">POST /api/analyze-v2                   ← main SSE stream</text>
        </g>
        <g transform="translate(0,84)">
          <rect width="430" height="22" rx="6" fill="#1a0606" stroke="#7f1d1d"/>
          <text x="10" y="15">GET  /api/session/&#123;id&#125;/events        ← spectator SSE</text>
        </g>
        <g transform="translate(0,112)">
          <rect width="430" height="22" rx="6" fill="#1a0606" stroke="#7f1d1d"/>
          <text x="10" y="15">GET  /api/chat/stream · POST /api/chat/agent-stream</text>
        </g>
        <g transform="translate(0,140)">
          <rect width="430" height="22" rx="6" fill="#1a0606" stroke="#7f1d1d"/>
          <text x="10" y="15">POST /api/convert/&#123;id&#125;                ← batch SSE</text>
        </g>
        <g transform="translate(0,168)">
          <rect width="430" height="22" rx="6" fill="#1a0606" stroke="#7f1d1d"/>
          <text x="10" y="15">GET  /api/artifact/&#123;id&#125; · /api/artifact/&#123;id&#125;/meta</text>
        </g>
        <g transform="translate(0,196)">
          <rect width="430" height="22" rx="6" fill="#1a0606" stroke="#7f1d1d"/>
          <text x="10" y="15">POST /api/diff · /api/execute · /api/export</text>
        </g>
        <g transform="translate(0,224)">
          <rect width="430" height="22" rx="6" fill="#1a0606" stroke="#7f1d1d"/>
          <text x="10" y="15">GET  /api/models · /api/agents · /api/health</text>
        </g>
        <g transform="translate(0,252)">
          <rect width="430" height="22" rx="6" fill="#1a0606" stroke="#7f1d1d"/>
          <text x="10" y="15">GET  /api/logs/stream                  ← live backend logs</text>
        </g>
        <g transform="translate(0,280)">
          <rect width="430" height="22" rx="6" fill="#1a0606" stroke="#7f1d1d"/>
          <text x="10" y="15">GET  /api/code/files/&#123;id&#125; · /api/code/file/&#123;id&#125;/&#123;path&#125;</text>
        </g>
      </g>
    </g>

    <!-- Agents -->
    <g transform="translate(710,20)">
      <text x="0" y="14" fill="#fda4af" font-weight="700" font-size="13">13 AI Agents</text>
      <g font-size="11" fill="#fee2e2">
        <g transform="translate(0,24)"><rect width="200" height="24" rx="6" fill="#2a0810" stroke="#991b1b"/><text x="100" y="16" text-anchor="middle">architecture</text></g>
        <g transform="translate(210,24)"><rect width="200" height="24" rx="6" fill="#2a0810" stroke="#991b1b"/><text x="100" y="16" text-anchor="middle">code-analysis</text></g>
        <g transform="translate(0,54)"><rect width="200" height="24" rx="6" fill="#2a0810" stroke="#991b1b"/><text x="100" y="16" text-anchor="middle">code-generation</text></g>
        <g transform="translate(210,54)"><rect width="200" height="24" rx="6" fill="#2a0810" stroke="#991b1b"/><text x="100" y="16" text-anchor="middle">business-rules</text></g>
        <g transform="translate(0,84)"><rect width="200" height="24" rx="6" fill="#2a0810" stroke="#991b1b"/><text x="100" y="16" text-anchor="middle">security</text></g>
        <g transform="translate(210,84)"><rect width="200" height="24" rx="6" fill="#2a0810" stroke="#991b1b"/><text x="100" y="16" text-anchor="middle">devops</text></g>
        <g transform="translate(0,114)"><rect width="200" height="24" rx="6" fill="#2a0810" stroke="#991b1b"/><text x="100" y="16" text-anchor="middle">documentation</text></g>
        <g transform="translate(210,114)"><rect width="200" height="24" rx="6" fill="#2a0810" stroke="#991b1b"/><text x="100" y="16" text-anchor="middle">testing</text></g>
        <g transform="translate(0,144)"><rect width="200" height="24" rx="6" fill="#2a0810" stroke="#991b1b"/><text x="100" y="16" text-anchor="middle">data-migration</text></g>
        <g transform="translate(210,144)"><rect width="200" height="24" rx="6" fill="#2a0810" stroke="#991b1b"/><text x="100" y="16" text-anchor="middle">ui-ux</text></g>
        <g transform="translate(0,174)"><rect width="200" height="24" rx="6" fill="#2a0810" stroke="#991b1b"/><text x="100" y="16" text-anchor="middle">integration</text></g>
        <g transform="translate(210,174)"><rect width="200" height="24" rx="6" fill="#2a0810" stroke="#991b1b"/><text x="100" y="16" text-anchor="middle">migration-planner</text></g>
        <g transform="translate(0,204)"><rect width="410" height="24" rx="6" fill="#2a0810" stroke="#991b1b"/><text x="205" y="16" text-anchor="middle">code-review</text></g>
      </g>

      <!-- Data sources -->
      <g transform="translate(0,220)">
        <text x="0" y="0" fill="#fda4af" font-weight="700" font-size="13">Data &amp; LLM Providers</text>
        <g transform="translate(0,10)">
          <rect width="200" height="28" rx="6" fill="#2a0810" stroke="#991b1b"/>
          <text x="100" y="18" text-anchor="middle" fill="#fee2e2" font-size="11">ChromaDB (vector store)</text>
        </g>
        <g transform="translate(210,10)">
          <rect width="200" height="28" rx="6" fill="#2a0810" stroke="#991b1b"/>
          <text x="100" y="18" text-anchor="middle" fill="#fee2e2" font-size="11">Session uploads cache</text>
        </g>
        <g transform="translate(0,44)">
          <rect width="410" height="28" rx="6" fill="#2a0810" stroke="#991b1b"/>
          <text x="205" y="18" text-anchor="middle" fill="#fee2e2" font-size="11">LLMs · Groq · Gemini · OpenAI · Ollama</text>
        </g>
      </g>
    </g>
  </g>

  <!-- ==================== FOOTER ==================== -->
  <g transform="translate(120,1990)">
    <rect width="1160" height="130" rx="16" fill="#0b1228" stroke="#1e293b"/>
    <text x="580" y="34" text-anchor="middle" fill="#e2e8f0" font-size="15" font-weight="700">Key Design Patterns</text>

    <g transform="translate(30,50)" font-size="12" fill="#cbd5e1">
      <text font-weight="700" fill="#22d3ee">Spectator Mode</text>
      <text y="18">Multi-tab safe: re-attach to live SSE</text>
      <text y="34">via /api/session/&#123;id&#125;/events + history replay</text>
    </g>
    <g transform="translate(310,50)" font-size="12" fill="#cbd5e1">
      <text font-weight="700" fill="#a78bfa">Detached Streaming</text>
      <text y="18">Conversion continues while user</text>
      <text y="34">switches tabs (async generator + context)</text>
    </g>
    <g transform="translate(600,50)" font-size="12" fill="#cbd5e1">
      <text font-weight="700" fill="#34d399">Error Isolation</text>
      <text y="18">ErrorBoundary wraps App + every major</text>
      <text y="34">section; resets independently</text>
    </g>
    <g transform="translate(880,50)" font-size="12" fill="#cbd5e1">
      <text font-weight="700" fill="#fbbf24">Intent Classification</text>
      <text y="18">Report chat auto-routes: refine · ask · run</text>
      <text y="34">based on @mentions &amp; keywords</text>
    </g>
  </g>

  <text x="700" y="2140" text-anchor="middle" fill="#64748b" font-size="11">AppNova v2 · React 18 + TS + Vite 8 + Tailwind 4 · © 2026</text>
</svg>
